<mxfile host="app.diagrams.net" agent="Mozilla/5.0 (X11; Linux x86_64) AppleWebKit/537.36 (KHTML, like Gecko) Chrome/126.0.0.0 Safari/537.36 Edg/126.0.0.0" version="24.7.5">
  <diagram id="C5RBs43oDa-KdzZeNtuy" name="Page-1">
    <mxGraphModel dx="1256" dy="733" grid="1" gridSize="10" guides="1" tooltips="1" connect="1" arrows="1" fold="1" page="1" pageScale="1" pageWidth="827" pageHeight="1169" math="0" shadow="0">
      <root>
        <mxCell id="WIyWlLk6GJQsqaUBKTNV-0" />
        <mxCell id="WIyWlLk6GJQsqaUBKTNV-1" parent="WIyWlLk6GJQsqaUBKTNV-0" />
        <mxCell id="nQh75RoerMFK3YIyUBo_-3" value="&lt;div style=&quot;&quot;&gt;&lt;span style=&quot;background-color: initial;&quot;&gt;阶段&lt;/span&gt;&lt;/div&gt;" style="swimlane;childLayout=stackLayout;resizeParent=1;resizeParentMax=0;horizontal=1;startSize=20;horizontalStack=0;html=1;align=right;movable=1;resizable=1;rotatable=1;deletable=1;editable=1;locked=0;connectable=1;" vertex="1" parent="WIyWlLk6GJQsqaUBKTNV-1">
          <mxGeometry x="450" y="300" width="810" height="1200" as="geometry" />
        </mxCell>
        <mxCell id="nQh75RoerMFK3YIyUBo_-4" value="功能定义阶段" style="swimlane;startSize=20;horizontal=0;html=1;" vertex="1" parent="nQh75RoerMFK3YIyUBo_-3">
          <mxGeometry y="20" width="810" height="220" as="geometry" />
        </mxCell>
        <mxCell id="nQh75RoerMFK3YIyUBo_-5" value="功能设计阶段" style="swimlane;startSize=20;horizontal=0;html=1;" vertex="1" parent="nQh75RoerMFK3YIyUBo_-3">
          <mxGeometry y="240" width="810" height="320" as="geometry" />
        </mxCell>
        <mxCell id="nQh75RoerMFK3YIyUBo_-13" value="" style="edgeStyle=orthogonalEdgeStyle;rounded=0;orthogonalLoop=1;jettySize=auto;html=1;" edge="1" parent="nQh75RoerMFK3YIyUBo_-5" source="nQh75RoerMFK3YIyUBo_-9" target="nQh75RoerMFK3YIyUBo_-10">
          <mxGeometry relative="1" as="geometry" />
        </mxCell>
        <mxCell id="nQh75RoerMFK3YIyUBo_-9" value="功能定义和&lt;div&gt;原型设计&lt;/div&gt;" style="strokeWidth=2;html=1;shape=mxgraph.flowchart.terminator;whiteSpace=wrap;gradientColor=#e8e8e8;" vertex="1" parent="nQh75RoerMFK3YIyUBo_-5">
          <mxGeometry x="110" y="-180" width="100" height="60" as="geometry" />
        </mxCell>
        <mxCell id="nQh75RoerMFK3YIyUBo_-10" value="评审" style="rhombus;whiteSpace=wrap;html=1;fillColor=#f8cecc;strokeColor=#b85450;movable=1;resizable=1;rotatable=1;deletable=1;editable=1;locked=0;connectable=1;" vertex="1" parent="nQh75RoerMFK3YIyUBo_-5">
          <mxGeometry x="120" y="-80" width="80" height="40" as="geometry" />
        </mxCell>
        <mxCell id="nQh75RoerMFK3YIyUBo_-17" value="" style="edgeStyle=orthogonalEdgeStyle;rounded=0;orthogonalLoop=1;jettySize=auto;html=1;" edge="1" parent="nQh75RoerMFK3YIyUBo_-5" source="nQh75RoerMFK3YIyUBo_-14" target="nQh75RoerMFK3YIyUBo_-16">
          <mxGeometry relative="1" as="geometry" />
        </mxCell>
        <mxCell id="nQh75RoerMFK3YIyUBo_-14" value="需求设计" style="whiteSpace=wrap;html=1;fillColor=#e1d5e7;strokeColor=#9673a6;resizable=1;rounded=1;" vertex="1" parent="nQh75RoerMFK3YIyUBo_-5">
          <mxGeometry x="100" y="40" width="120" height="60" as="geometry" />
        </mxCell>
        <mxCell id="nQh75RoerMFK3YIyUBo_-21" value="" style="edgeStyle=orthogonalEdgeStyle;rounded=0;orthogonalLoop=1;jettySize=auto;html=1;fontFamily=Helvetica;fontSize=12;fontColor=default;resizable=1;" edge="1" parent="nQh75RoerMFK3YIyUBo_-5" source="nQh75RoerMFK3YIyUBo_-16" target="nQh75RoerMFK3YIyUBo_-20">
          <mxGeometry relative="1" as="geometry" />
        </mxCell>
        <mxCell id="nQh75RoerMFK3YIyUBo_-16" value="功能设计" style="whiteSpace=wrap;html=1;fillColor=#e1d5e7;strokeColor=#9673a6;resizable=1;rounded=1;" vertex="1" parent="nQh75RoerMFK3YIyUBo_-5">
          <mxGeometry x="100" y="140" width="120" height="60" as="geometry" />
        </mxCell>
        <mxCell id="nQh75RoerMFK3YIyUBo_-15" value="" style="edgeStyle=orthogonalEdgeStyle;rounded=0;orthogonalLoop=1;jettySize=auto;html=1;" edge="1" parent="nQh75RoerMFK3YIyUBo_-5" source="nQh75RoerMFK3YIyUBo_-10" target="nQh75RoerMFK3YIyUBo_-14">
          <mxGeometry relative="1" as="geometry" />
        </mxCell>
        <mxCell id="nQh75RoerMFK3YIyUBo_-22" style="edgeStyle=orthogonalEdgeStyle;rounded=0;orthogonalLoop=1;jettySize=auto;html=1;entryX=0;entryY=0.5;entryDx=0;entryDy=0;fontFamily=Helvetica;fontSize=12;fontColor=default;resizable=1;" edge="1" parent="nQh75RoerMFK3YIyUBo_-5" source="nQh75RoerMFK3YIyUBo_-20" target="nQh75RoerMFK3YIyUBo_-14">
          <mxGeometry relative="1" as="geometry">
            <Array as="points">
              <mxPoint x="70" y="260" />
              <mxPoint x="70" y="70" />
            </Array>
          </mxGeometry>
        </mxCell>
        <mxCell id="nQh75RoerMFK3YIyUBo_-23" value="不通过" style="edgeLabel;html=1;align=center;verticalAlign=middle;resizable=0;points=[];strokeColor=#b85450;fontFamily=Helvetica;fontSize=12;fontColor=default;fillColor=#f8cecc;" vertex="1" connectable="0" parent="nQh75RoerMFK3YIyUBo_-22">
          <mxGeometry x="-0.8332" y="-2" relative="1" as="geometry">
            <mxPoint x="-7" as="offset" />
          </mxGeometry>
        </mxCell>
        <mxCell id="nQh75RoerMFK3YIyUBo_-20" value="评审" style="rhombus;whiteSpace=wrap;html=1;fillColor=#f8cecc;strokeColor=#b85450;movable=1;resizable=1;rotatable=1;deletable=1;editable=1;locked=0;connectable=1;" vertex="1" parent="nQh75RoerMFK3YIyUBo_-5">
          <mxGeometry x="120" y="240" width="80" height="40" as="geometry" />
        </mxCell>
        <mxCell id="nQh75RoerMFK3YIyUBo_-37" value="" style="edgeStyle=orthogonalEdgeStyle;rounded=0;orthogonalLoop=1;jettySize=auto;html=1;fontFamily=Helvetica;fontSize=12;fontColor=default;resizable=1;" edge="1" parent="nQh75RoerMFK3YIyUBo_-3" source="nQh75RoerMFK3YIyUBo_-20" target="nQh75RoerMFK3YIyUBo_-36">
          <mxGeometry relative="1" as="geometry" />
        </mxCell>
        <mxCell id="nQh75RoerMFK3YIyUBo_-26" value="" style="edgeStyle=orthogonalEdgeStyle;rounded=0;orthogonalLoop=1;jettySize=auto;html=1;fontFamily=Helvetica;fontSize=12;fontColor=default;resizable=1;" edge="1" parent="nQh75RoerMFK3YIyUBo_-3" source="nQh75RoerMFK3YIyUBo_-14" target="nQh75RoerMFK3YIyUBo_-25">
          <mxGeometry relative="1" as="geometry" />
        </mxCell>
        <mxCell id="nQh75RoerMFK3YIyUBo_-6" value="功能实现阶段" style="swimlane;startSize=20;horizontal=0;html=1;" vertex="1" parent="nQh75RoerMFK3YIyUBo_-3">
          <mxGeometry y="560" width="810" height="320" as="geometry" />
        </mxCell>
        <mxCell id="nQh75RoerMFK3YIyUBo_-41" value="" style="edgeStyle=orthogonalEdgeStyle;rounded=0;orthogonalLoop=1;jettySize=auto;html=1;fontFamily=Helvetica;fontSize=12;fontColor=default;resizable=1;" edge="1" parent="nQh75RoerMFK3YIyUBo_-6" source="nQh75RoerMFK3YIyUBo_-36">
          <mxGeometry relative="1" as="geometry">
            <mxPoint x="160" y="140" as="targetPoint" />
          </mxGeometry>
        </mxCell>
        <mxCell id="nQh75RoerMFK3YIyUBo_-36" value="代码实现" style="whiteSpace=wrap;html=1;fillColor=#dae8fc;strokeColor=#6c8ebf;resizable=1;rounded=1;" vertex="1" parent="nQh75RoerMFK3YIyUBo_-6">
          <mxGeometry x="100" y="40" width="120" height="60" as="geometry" />
        </mxCell>
        <mxCell id="nQh75RoerMFK3YIyUBo_-28" value="" style="edgeStyle=orthogonalEdgeStyle;rounded=0;orthogonalLoop=1;jettySize=auto;html=1;fontFamily=Helvetica;fontSize=12;fontColor=default;resizable=1;" edge="1" parent="nQh75RoerMFK3YIyUBo_-6" source="nQh75RoerMFK3YIyUBo_-25" target="nQh75RoerMFK3YIyUBo_-27">
          <mxGeometry relative="1" as="geometry" />
        </mxCell>
        <mxCell id="nQh75RoerMFK3YIyUBo_-31" value="" style="edgeStyle=orthogonalEdgeStyle;rounded=0;orthogonalLoop=1;jettySize=auto;html=1;fontFamily=Helvetica;fontSize=12;fontColor=default;resizable=1;" edge="1" parent="nQh75RoerMFK3YIyUBo_-6" source="nQh75RoerMFK3YIyUBo_-27" target="nQh75RoerMFK3YIyUBo_-30">
          <mxGeometry relative="1" as="geometry" />
        </mxCell>
        <mxCell id="nQh75RoerMFK3YIyUBo_-33" style="edgeStyle=orthogonalEdgeStyle;rounded=0;orthogonalLoop=1;jettySize=auto;html=1;fontFamily=Helvetica;fontSize=12;fontColor=default;resizable=1;entryX=0;entryY=0.5;entryDx=0;entryDy=0;" edge="1" parent="nQh75RoerMFK3YIyUBo_-6" source="nQh75RoerMFK3YIyUBo_-30" target="nQh75RoerMFK3YIyUBo_-27">
          <mxGeometry relative="1" as="geometry">
            <mxPoint x="410" y="-150" as="targetPoint" />
            <Array as="points">
              <mxPoint x="400" y="-60" />
              <mxPoint x="400" y="-150" />
            </Array>
          </mxGeometry>
        </mxCell>
        <mxCell id="nQh75RoerMFK3YIyUBo_-34" value="Text" style="edgeLabel;html=1;align=center;verticalAlign=middle;resizable=0;points=[];strokeColor=#b85450;fontFamily=Helvetica;fontSize=12;fontColor=default;fillColor=#f8cecc;" vertex="1" connectable="0" parent="nQh75RoerMFK3YIyUBo_-33">
          <mxGeometry x="-0.6609" relative="1" as="geometry">
            <mxPoint as="offset" />
          </mxGeometry>
        </mxCell>
        <mxCell id="nQh75RoerMFK3YIyUBo_-35" value="不通过" style="edgeLabel;html=1;align=center;verticalAlign=middle;resizable=0;points=[];strokeColor=#b85450;fontFamily=Helvetica;fontSize=12;fontColor=default;fillColor=#f8cecc;" vertex="1" connectable="0" parent="nQh75RoerMFK3YIyUBo_-33">
          <mxGeometry x="-0.6955" y="2" relative="1" as="geometry">
            <mxPoint as="offset" />
          </mxGeometry>
        </mxCell>
        <mxCell id="nQh75RoerMFK3YIyUBo_-39" value="" style="edgeStyle=orthogonalEdgeStyle;rounded=0;orthogonalLoop=1;jettySize=auto;html=1;fontFamily=Helvetica;fontSize=12;fontColor=default;resizable=1;" edge="1" parent="nQh75RoerMFK3YIyUBo_-6" source="nQh75RoerMFK3YIyUBo_-30" target="nQh75RoerMFK3YIyUBo_-38">
          <mxGeometry relative="1" as="geometry" />
        </mxCell>
        <mxCell id="nQh75RoerMFK3YIyUBo_-25" value="测试方案" style="rounded=1;whiteSpace=wrap;html=1;fillColor=#d5e8d4;strokeColor=#82b366;resizable=1;" vertex="1" parent="nQh75RoerMFK3YIyUBo_-6">
          <mxGeometry x="430" y="-280" width="120" height="60" as="geometry" />
        </mxCell>
        <mxCell id="nQh75RoerMFK3YIyUBo_-27" value="测试用例" style="rounded=1;whiteSpace=wrap;html=1;fillColor=#d5e8d4;strokeColor=#82b366;resizable=1;" vertex="1" parent="nQh75RoerMFK3YIyUBo_-6">
          <mxGeometry x="430" y="-180" width="120" height="60" as="geometry" />
        </mxCell>
        <mxCell id="nQh75RoerMFK3YIyUBo_-30" value="评审" style="rhombus;whiteSpace=wrap;html=1;fillColor=#f8cecc;strokeColor=#b85450;movable=1;resizable=1;rotatable=1;deletable=1;editable=1;locked=0;connectable=1;" vertex="1" parent="nQh75RoerMFK3YIyUBo_-6">
          <mxGeometry x="450" y="-80" width="80" height="40" as="geometry" />
        </mxCell>
        <mxCell id="nQh75RoerMFK3YIyUBo_-38" value="仿真场景制作" style="rounded=1;whiteSpace=wrap;html=1;fillColor=#f8cecc;strokeColor=#b85450;resizable=1;" vertex="1" parent="nQh75RoerMFK3YIyUBo_-6">
          <mxGeometry x="430" y="40" width="120" height="60" as="geometry" />
        </mxCell>
        <mxCell id="nQh75RoerMFK3YIyUBo_-45" value="" style="edgeStyle=orthogonalEdgeStyle;rounded=0;orthogonalLoop=1;jettySize=auto;html=1;fontFamily=Helvetica;fontSize=12;fontColor=default;resizable=1;" edge="1" parent="nQh75RoerMFK3YIyUBo_-6" source="nQh75RoerMFK3YIyUBo_-42" target="nQh75RoerMFK3YIyUBo_-44">
          <mxGeometry relative="1" as="geometry" />
        </mxCell>
        <mxCell id="nQh75RoerMFK3YIyUBo_-42" value="代码扫描" style="whiteSpace=wrap;html=1;fillColor=#dae8fc;strokeColor=#6c8ebf;resizable=1;rounded=1;" vertex="1" parent="nQh75RoerMFK3YIyUBo_-6">
          <mxGeometry x="100" y="140" width="120" height="60" as="geometry" />
        </mxCell>
        <mxCell id="nQh75RoerMFK3YIyUBo_-46" style="edgeStyle=orthogonalEdgeStyle;rounded=0;orthogonalLoop=1;jettySize=auto;html=1;entryX=0;entryY=0.5;entryDx=0;entryDy=0;fontFamily=Helvetica;fontSize=12;fontColor=default;resizable=1;" edge="1" parent="nQh75RoerMFK3YIyUBo_-6" source="nQh75RoerMFK3YIyUBo_-44" target="nQh75RoerMFK3YIyUBo_-36">
          <mxGeometry relative="1" as="geometry">
            <Array as="points">
              <mxPoint x="80" y="260" />
              <mxPoint x="80" y="70" />
            </Array>
          </mxGeometry>
        </mxCell>
        <mxCell id="nQh75RoerMFK3YIyUBo_-47" value="不通过" style="edgeLabel;html=1;align=center;verticalAlign=middle;resizable=0;points=[];strokeColor=#b85450;fontFamily=Helvetica;fontSize=12;fontColor=default;fillColor=#f8cecc;" vertex="1" connectable="0" parent="nQh75RoerMFK3YIyUBo_-46">
          <mxGeometry x="-0.8522" y="2" relative="1" as="geometry">
            <mxPoint as="offset" />
          </mxGeometry>
        </mxCell>
        <mxCell id="nQh75RoerMFK3YIyUBo_-44" value="代码评审" style="rhombus;whiteSpace=wrap;html=1;fillColor=#f8cecc;strokeColor=#b85450;movable=1;resizable=1;rotatable=1;deletable=1;editable=1;locked=0;connectable=1;" vertex="1" parent="nQh75RoerMFK3YIyUBo_-6">
          <mxGeometry x="120" y="240" width="80" height="40" as="geometry" />
        </mxCell>
        <mxCell id="nQh75RoerMFK3YIyUBo_-67" value="功能测试阶段" style="swimlane;startSize=20;horizontal=0;html=1;" vertex="1" parent="nQh75RoerMFK3YIyUBo_-3">
          <mxGeometry y="880" width="810" height="320" as="geometry" />
        </mxCell>
        <mxCell id="nQh75RoerMFK3YIyUBo_-24" value="评审小组" style="rhombus;whiteSpace=wrap;html=1;fillColor=#f8cecc;strokeColor=#b85450;movable=1;resizable=1;rotatable=1;deletable=1;editable=1;locked=0;connectable=1;" vertex="1" parent="WIyWlLk6GJQsqaUBKTNV-1">
          <mxGeometry x="520" y="240" width="80" height="40" as="geometry" />
        </mxCell>
      </root>
    </mxGraphModel>
  </diagram>
</mxfile>
